
<svg width="15" height="16" viewBox="0 0 15 16" fill="none" xmlns="http://www.w3.org/2000/svg">
<path d="M3.06918 15.2491C2.41878 16.0212 1.1992 16.0212 0.548803 15.2491C-0.182934 14.4769 -0.182934 13.2759 0.548803 12.5038L4.77639 7.9572L0.548803 3.49622C-0.182934 2.72408 -0.182934 1.52301 0.548803 0.750986C1.1992 -0.021149 2.41878 -0.021149 3.06918 0.750986L7.37794 5.29763L11.8496 0.579101C12.5813 -0.193034 13.7196 -0.193034 14.4512 0.579101C15.1829 1.26541 15.1829 2.55231 14.4512 3.23862L9.97954 7.95714L14.4512 12.6757C15.1829 13.4478 15.1829 14.6489 14.4512 15.4209C13.7195 16.193 12.5812 16.193 11.8496 15.4209L7.37794 10.7024L3.06918 15.2491Z" fill="white"/>
</svg>
