<svg width="40" height="40" viewBox="0 0 40 40" fill="none" xmlns="http://www.w3.org/2000/svg">
<path d="M19.9081 0.577271C9.06048 0.577271 0.234863 9.40289 0.234863 20.2505C0.234863 31.0981 9.06048 39.9237 19.9081 39.9237C30.7556 39.9237 39.5813 31.0981 39.5813 20.2505C39.5813 9.40289 30.7556 0.577271 19.9081 0.577271ZM19.9081 37.8283C10.2159 37.8283 2.33021 29.9426 2.33021 20.2505C2.33021 10.5583 10.2159 2.67262 19.9081 2.67262C29.6002 2.67262 37.4859 10.5583 37.4859 20.2505C37.4859 29.9426 29.6002 37.8283 19.9081 37.8283Z" fill="white"/>
<path d="M19.908 26.9689C18.84 26.9689 17.9712 27.8384 17.9712 28.9075C17.9712 29.9752 18.84 30.8424 19.908 30.8424C20.9766 30.8424 21.845 29.9755 21.845 28.9075C21.8456 27.8384 20.9765 26.9689 19.908 26.9689Z" fill="white"/>
<rect x="18.2759" y="9.65845" width="3.2645" height="14.4858" fill="white"/>
</svg>
