<svg width="54" height="54" viewBox="0 0 126 126" fill="none" xmlns="http://www.w3.org/2000/svg">
<circle cx="62.7003" cy="62.7003" r="62.7003" fill="url(#paint0_linear_125_18)"/>
<path d="M62.7001 0.000509624C46.0712 0.000509624 30.1233 6.6057 18.3643 18.3649C6.60519 30.123 0 46.0712 0 62.7006C0 79.33 6.60519 95.2774 18.3643 107.036C30.1225 118.795 46.0707 125.401 62.7001 125.401C79.3295 125.401 95.2769 118.795 107.036 107.036C118.795 95.2781 125.4 79.33 125.4 62.7006C125.381 46.0768 118.77 30.139 107.015 18.3852C95.2609 6.63013 79.3239 0.0188305 62.6996 0L62.7001 0.000509624ZM62.7001 119.702C47.5822 119.702 33.0852 113.696 22.3951 103.006C11.705 92.3169 5.6998 77.8192 5.6998 62.7013C5.6998 47.5835 11.7057 33.0865 22.3951 22.3964C33.0845 11.7062 47.5822 5.70107 62.7001 5.70107C77.8179 5.70107 92.3149 11.707 103.005 22.3964C113.695 33.0857 119.7 47.5835 119.7 62.7013C119.7 72.707 117.066 82.5367 112.063 91.2016C107.06 99.8664 99.8647 107.062 91.2001 112.065C82.5352 117.068 72.7054 119.702 62.6998 119.702L62.7001 119.702Z" fill="white"/>
<path d="M62.6991 17.1006C62.6995 17.1002 62.6997 17.0997 62.6997 17.0991V14.8347C62.6997 12.9374 61.1596 11.3874 59.2666 11.5143C46.9143 12.3423 35.2321 17.6172 26.4255 26.4259C17.4781 35.3724 12.1767 47.2837 11.4781 59.851C11.3907 61.4227 12.6751 62.7001 14.2493 62.7001C15.8234 62.7001 17.0903 61.4224 17.1885 59.8513C17.88 48.797 22.5775 38.3341 30.455 30.4567C39.0071 21.9055 50.6051 17.1015 62.6975 17.1012C62.6981 17.1012 62.6987 17.101 62.6991 17.1006Z" fill="white"/>
<path d="M111.151 62.7007C109.577 62.7006 108.31 63.978 108.212 65.5491C107.773 72.5625 105.718 79.3933 102.192 85.5013C98.1897 92.4335 92.4335 98.1898 85.5013 102.192C79.3935 105.718 72.5625 107.773 65.5491 108.212C63.978 108.31 62.7006 109.577 62.7006 111.151C62.7006 112.725 63.978 114.01 65.5497 113.922C78.1174 113.224 90.0295 107.922 98.9748 98.9751C107.922 90.0286 113.224 78.1172 113.922 65.5497C114.01 63.9781 112.725 62.7008 111.151 62.7007Z" fill="white"/>
<path d="M74.5636 68.0688L62.6601 79.9722L50.7566 68.0688L50.7559 57.7987L59.1583 66.2011V45.428H66.3936V66.2011L74.796 57.7987L74.7968 68.0688H74.5636Z" fill="white"/>
<path d="M102.602 62.7003C102.602 52.118 98.398 41.9691 90.9151 34.485C83.4323 27.0009 73.2834 22.7984 62.6999 22.7984C52.1163 22.7984 41.9687 27.0022 34.4846 34.485C27.0005 41.9678 22.798 52.1167 22.798 62.7003C22.798 73.2838 27.0018 83.4314 34.4846 90.9155C41.9674 98.3996 52.1163 102.602 62.6999 102.602C73.2834 102.602 83.431 98.3984 90.9151 90.9155C98.3992 83.4327 102.602 73.2838 102.602 62.7003ZM28.5011 62.7003C28.5011 53.6298 32.1043 44.9303 38.5176 38.517C44.931 32.1037 53.6307 28.5005 62.7009 28.5005C71.7711 28.5005 80.4708 32.1037 86.8841 38.517C93.2974 44.9303 96.9007 53.6301 96.9007 62.7003C96.9007 71.7705 93.2974 80.4702 86.8841 86.8835C80.4708 93.2968 71.7711 96.9001 62.7009 96.9001C53.6307 96.9001 44.931 93.2968 38.5176 86.8835C32.1043 80.4702 28.5011 71.7705 28.5011 62.7003Z" fill="white"/>
<defs>
<linearGradient id="paint0_linear_125_18" x1="9.34308e-07" y1="62.7003" x2="125.401" y2="62.7003" gradientUnits="userSpaceOnUse">
<stop stop-color="#8919CE"/>
<stop offset="0.0207723" stop-color="#861CCF"/>
<stop offset="1" stop-color="#FF00D6"/>
</linearGradient>
</defs>
</svg>
