
<svg width="52" height="52" viewBox="0 0 52 52" fill="none" xmlns="http://www.w3.org/2000/svg">
<g clip-path="url(#clip0_15_333)">
<rect x="0.479004" y="0.27504" width="51.4991" height="51.4991" rx="12.612" fill="url(#paint0_linear_15_333)"/>
<circle cx="54.6057" cy="26.0246" r="26.8005" fill="#9B33FD"/>
<path d="M14.0955 27.3635H16.4747L15.2887 24.5236L14.0955 27.3635Z" fill="white"/>
<path d="M21.1491 26.5632C21.1491 21.5783 23.9661 17.2435 28.0899 15.0603L18.2868 14.9891C11.9427 14.9963 6.78467 20.1551 6.78467 26.4912C6.78467 32.8352 11.943 38.0013 18.2876 38.0013L28.0907 38.0729C23.9669 35.8978 21.1499 31.5553 21.1499 26.5627L21.1491 26.5632ZM18.9285 31.2762C18.5432 31.4349 18.0978 31.2534 17.9391 30.8684L17.1084 28.882H13.4606L12.6299 30.8684C12.5091 31.163 12.2297 31.3365 11.9351 31.3365C11.8368 31.3365 11.7388 31.3138 11.6405 31.2762C11.2552 31.1175 11.0741 30.6721 11.2403 30.2868L12.2673 27.8323V27.8247L14.5858 22.2733C14.7066 21.9939 14.9784 21.8128 15.2882 21.8128C15.5904 21.8128 15.8622 21.9939 15.983 22.2733L18.3015 27.8247L18.3091 27.8323L19.3361 30.2868C19.4948 30.6642 19.3136 31.1175 18.9283 31.2762H18.9285Z" fill="white"/>
<path d="M34.1697 27.484C34.9025 26.5474 35.431 25.596 35.7708 24.9085H32.5608C32.9085 25.596 33.437 26.5474 34.1697 27.484Z" fill="white"/>
<path d="M34.1696 15.0675C27.8256 15.0675 22.6594 20.2259 22.6594 26.5704C22.6594 32.9145 27.8254 38.0806 34.1696 38.0806C40.5138 38.0806 45.6717 32.9146 45.6717 26.5631C45.6717 20.2266 40.5133 15.0683 34.1696 15.0683V15.0675ZM39.5167 24.901H37.4472C37.115 25.6562 36.3747 27.1592 35.189 28.6171C36.1029 29.5082 37.213 30.2484 38.5274 30.5355C38.9351 30.6186 39.1921 31.0264 39.1014 31.4341C39.0258 31.7891 38.7161 32.0233 38.3687 32.0233C38.3083 32.0233 38.2555 32.0233 38.2024 32.0081C36.5862 31.6531 35.2494 30.7769 34.1693 29.7347C33.0892 30.7769 31.7448 31.6531 30.1286 32.0081C30.0758 32.0233 30.0227 32.0233 29.9699 32.0233C29.6225 32.0233 29.3052 31.7891 29.2296 31.4341C29.1389 31.0263 29.4035 30.6186 29.8113 30.5355C31.1252 30.2484 32.2357 29.5085 33.142 28.6247C31.9563 27.1671 31.216 25.6565 30.8914 24.9013H28.8219C28.4066 24.9013 28.0668 24.5615 28.0668 24.1462C28.0668 23.7233 28.4066 23.391 28.8219 23.391H33.4139V21.858C33.4139 21.4426 33.7461 21.1028 34.169 21.1028C34.5844 21.1028 34.9242 21.4426 34.9242 21.858V23.391H39.5161C39.9314 23.391 40.2712 23.7233 40.2712 24.1462C40.2722 24.5685 39.9321 24.901 39.5167 24.901L39.5167 24.901Z" fill="white"/>
</g>
<defs>
<linearGradient id="paint0_linear_15_333" x1="0.479004" y1="25.6514" x2="51.9781" y2="25.6514" gradientUnits="userSpaceOnUse">
<stop stop-color="#12BFFF"/>
<stop offset="1" stop-color="#A12DFD"/>
</linearGradient>
<clipPath id="clip0_15_333">
<rect x="0.479004" y="0.27504" width="51.4991" height="51.4991" rx="12.612" fill="white"/>
</clipPath>
</defs>
</svg>
