<svg width="41" height="40" viewBox="0 0 41 40" fill="none" xmlns="http://www.w3.org/2000/svg">
<g clip-path="url(#clip0_7_1454)">
<rect x="0.854492" y="0.175171" width="39.2752" height="39.2752" rx="7.85504" fill="url(#paint0_linear_7_1454)"/>
<g filter="url(#filter0_diiii_7_1454)">
<path d="M13.4688 21.0839C13.4688 19.2433 14.9632 17.7469 16.8014 17.7469H36.7971C38.6353 17.7469 40.1297 19.2433 40.1297 21.0839V37.7691C40.1297 39.6097 38.6353 41.1062 36.7971 41.1062H16.8014C14.9632 41.1062 13.4688 39.6097 13.4688 37.7691V21.0839ZM15.9682 35.2664V36.9349C15.9682 37.3937 16.3431 37.7691 16.8014 37.7691H18.4677C18.9259 37.7691 19.3008 37.3937 19.3008 36.9349V35.2664C19.3008 34.8075 18.9259 34.4321 18.4677 34.4321H16.8014C16.3431 34.4321 15.9682 34.8075 15.9682 35.2664ZM35.1308 34.4321C34.6726 34.4321 34.2976 34.8075 34.2976 35.2664V36.9349C34.2976 37.3937 34.6726 37.7691 35.1308 37.7691H36.7971C37.2553 37.7691 37.6303 37.3937 37.6303 36.9349V35.2664C37.6303 34.8075 37.2553 34.4321 36.7971 34.4321H35.1308ZM15.9682 28.5923V30.2608C15.9682 30.7196 16.3431 31.0951 16.8014 31.0951H18.4677C18.9259 31.0951 19.3008 30.7196 19.3008 30.2608V28.5923C19.3008 28.1334 18.9259 27.758 18.4677 27.758H16.8014C16.3431 27.758 15.9682 28.1334 15.9682 28.5923ZM35.1308 27.758C34.6726 27.758 34.2976 28.1334 34.2976 28.5923V30.2608C34.2976 30.7196 34.6726 31.0951 35.1308 31.0951H36.7971C37.2553 31.0951 37.6303 30.7196 37.6303 30.2608V28.5923C37.6303 28.1334 37.2553 27.758 36.7971 27.758H35.1308ZM15.9682 21.9182V23.5867C15.9682 24.0456 16.3431 24.421 16.8014 24.421H18.4677C18.9259 24.421 19.3008 24.0456 19.3008 23.5867V21.9182C19.3008 21.4593 18.9259 21.0839 18.4677 21.0839H16.8014C16.3431 21.0839 15.9682 21.4593 15.9682 21.9182ZM35.1308 21.0839C34.6726 21.0839 34.2976 21.4593 34.2976 21.9182V23.5867C34.2976 24.0456 34.6726 24.421 35.1308 24.421H36.7971C37.2553 24.421 37.6303 24.0456 37.6303 23.5867V21.9182C37.6303 21.4593 37.2553 21.0839 36.7971 21.0839H35.1308ZM21.8003 22.7525V26.0895C21.8003 27.0124 22.5449 27.758 23.4666 27.758H30.1319C31.0535 27.758 31.7982 27.0124 31.7982 26.0895V22.7525C31.7982 21.8296 31.0535 21.0839 30.1319 21.0839H23.4666C22.5449 21.0839 21.8003 21.8296 21.8003 22.7525ZM23.4666 31.0951C22.5449 31.0951 21.8003 31.8407 21.8003 32.7636V36.1006C21.8003 37.0235 22.5449 37.7691 23.4666 37.7691H30.1319C31.0535 37.7691 31.7982 37.0235 31.7982 36.1006V32.7636C31.7982 31.8407 31.0535 31.0951 30.1319 31.0951H23.4666Z" fill="#FD4A65"/>
</g>
<g filter="url(#filter1_diiii_7_1454)">
<path d="M28.2719 -0.0379349C28.2719 -0.85118 27.6148 -1.50821 26.8016 -1.50821C25.9883 -1.50821 25.3313 -0.85118 25.3313 -0.0379349V11.1132L21.9589 7.74074C21.3846 7.16641 20.4518 7.16641 19.8775 7.74074C19.3032 8.31506 19.3032 9.24777 19.8775 9.82209L25.7586 15.7032C26.3329 16.2775 27.2657 16.2775 27.84 15.7032L33.7211 9.82209C34.2954 9.24777 34.2954 8.31506 33.7211 7.74074C33.1467 7.16641 32.214 7.16641 31.6397 7.74074L28.2719 11.1132V-0.0379349Z" fill="#FD4A65"/>
</g>
</g>
<defs>
<filter id="filter0_diiii_7_1454" x="12.4782" y="16.7564" width="28.6419" height="25.3403" filterUnits="userSpaceOnUse" color-interpolation-filters="sRGB">
<feFlood flood-opacity="0" result="BackgroundImageFix"/>
<feColorMatrix in="SourceAlpha" type="matrix" values="0 0 0 0 0 0 0 0 0 0 0 0 0 0 0 0 0 0 127 0" result="hardAlpha"/>
<feOffset dx="-0.0825417" dy="0.0825417"/>
<feGaussianBlur stdDeviation="0.0825417"/>
<feColorMatrix type="matrix" values="0 0 0 0 0.972549 0 0 0 0 0.403922 0 0 0 0 0.556863 0 0 0 0.3 0"/>
<feBlend mode="normal" in2="BackgroundImageFix" result="effect1_dropShadow_7_1454"/>
<feBlend mode="normal" in="SourceGraphic" in2="effect1_dropShadow_7_1454" result="shape"/>
<feColorMatrix in="SourceAlpha" type="matrix" values="0 0 0 0 0 0 0 0 0 0 0 0 0 0 0 0 0 0 127 0" result="hardAlpha"/>
<feOffset dx="-0.990501" dy="0.990501"/>
<feGaussianBlur stdDeviation="1.23813"/>
<feComposite in2="hardAlpha" operator="arithmetic" k2="-1" k3="1"/>
<feColorMatrix type="matrix" values="0 0 0 0 0.625342 0 0 0 0 0.10426 0 0 0 0 0.264008 0 0 0 0.9 0"/>
<feBlend mode="normal" in2="shape" result="effect2_innerShadow_7_1454"/>
<feColorMatrix in="SourceAlpha" type="matrix" values="0 0 0 0 0 0 0 0 0 0 0 0 0 0 0 0 0 0 127 0" result="hardAlpha"/>
<feOffset dx="0.990501" dy="-0.990501"/>
<feGaussianBlur stdDeviation="0.990501"/>
<feComposite in2="hardAlpha" operator="arithmetic" k2="-1" k3="1"/>
<feColorMatrix type="matrix" values="0 0 0 0 1 0 0 0 0 0.279225 0 0 0 0 0.411438 0 0 0 0.9 0"/>
<feBlend mode="normal" in2="effect2_innerShadow_7_1454" result="effect3_innerShadow_7_1454"/>
<feColorMatrix in="SourceAlpha" type="matrix" values="0 0 0 0 0 0 0 0 0 0 0 0 0 0 0 0 0 0 127 0" result="hardAlpha"/>
<feOffset dx="-0.990501" dy="-0.990501"/>
<feGaussianBlur stdDeviation="0.990501"/>
<feComposite in2="hardAlpha" operator="arithmetic" k2="-1" k3="1"/>
<feColorMatrix type="matrix" values="0 0 0 0 0.988235 0 0 0 0 0.309804 0 0 0 0 0.427451 0 0 0 0.2 0"/>
<feBlend mode="normal" in2="effect3_innerShadow_7_1454" result="effect4_innerShadow_7_1454"/>
<feColorMatrix in="SourceAlpha" type="matrix" values="0 0 0 0 0 0 0 0 0 0 0 0 0 0 0 0 0 0 127 0" result="hardAlpha"/>
<feOffset dx="0.990501" dy="0.990501"/>
<feGaussianBlur stdDeviation="0.990501"/>
<feComposite in2="hardAlpha" operator="arithmetic" k2="-1" k3="1"/>
<feColorMatrix type="matrix" values="0 0 0 0 0.792009 0 0 0 0 0.102347 0 0 0 0 0.234498 0 0 0 0.2 0"/>
<feBlend mode="normal" in2="effect4_innerShadow_7_1454" result="effect5_innerShadow_7_1454"/>
</filter>
<filter id="filter1_diiii_7_1454" x="18.4563" y="-2.49871" width="16.6861" height="19.6231" filterUnits="userSpaceOnUse" color-interpolation-filters="sRGB">
<feFlood flood-opacity="0" result="BackgroundImageFix"/>
<feColorMatrix in="SourceAlpha" type="matrix" values="0 0 0 0 0 0 0 0 0 0 0 0 0 0 0 0 0 0 127 0" result="hardAlpha"/>
<feOffset dx="-0.0825417" dy="0.0825417"/>
<feGaussianBlur stdDeviation="0.0825417"/>
<feColorMatrix type="matrix" values="0 0 0 0 0.972549 0 0 0 0 0.403922 0 0 0 0 0.556863 0 0 0 0.3 0"/>
<feBlend mode="normal" in2="BackgroundImageFix" result="effect1_dropShadow_7_1454"/>
<feBlend mode="normal" in="SourceGraphic" in2="effect1_dropShadow_7_1454" result="shape"/>
<feColorMatrix in="SourceAlpha" type="matrix" values="0 0 0 0 0 0 0 0 0 0 0 0 0 0 0 0 0 0 127 0" result="hardAlpha"/>
<feOffset dx="-0.990501" dy="0.990501"/>
<feGaussianBlur stdDeviation="1.23813"/>
<feComposite in2="hardAlpha" operator="arithmetic" k2="-1" k3="1"/>
<feColorMatrix type="matrix" values="0 0 0 0 0.625342 0 0 0 0 0.10426 0 0 0 0 0.264008 0 0 0 0.9 0"/>
<feBlend mode="normal" in2="shape" result="effect2_innerShadow_7_1454"/>
<feColorMatrix in="SourceAlpha" type="matrix" values="0 0 0 0 0 0 0 0 0 0 0 0 0 0 0 0 0 0 127 0" result="hardAlpha"/>
<feOffset dx="0.990501" dy="-0.990501"/>
<feGaussianBlur stdDeviation="0.990501"/>
<feComposite in2="hardAlpha" operator="arithmetic" k2="-1" k3="1"/>
<feColorMatrix type="matrix" values="0 0 0 0 1 0 0 0 0 0.279225 0 0 0 0 0.411438 0 0 0 0.9 0"/>
<feBlend mode="normal" in2="effect2_innerShadow_7_1454" result="effect3_innerShadow_7_1454"/>
<feColorMatrix in="SourceAlpha" type="matrix" values="0 0 0 0 0 0 0 0 0 0 0 0 0 0 0 0 0 0 127 0" result="hardAlpha"/>
<feOffset dx="-0.990501" dy="-0.990501"/>
<feGaussianBlur stdDeviation="0.990501"/>
<feComposite in2="hardAlpha" operator="arithmetic" k2="-1" k3="1"/>
<feColorMatrix type="matrix" values="0 0 0 0 0.988235 0 0 0 0 0.309804 0 0 0 0 0.427451 0 0 0 0.2 0"/>
<feBlend mode="normal" in2="effect3_innerShadow_7_1454" result="effect4_innerShadow_7_1454"/>
<feColorMatrix in="SourceAlpha" type="matrix" values="0 0 0 0 0 0 0 0 0 0 0 0 0 0 0 0 0 0 127 0" result="hardAlpha"/>
<feOffset dx="0.990501" dy="0.990501"/>
<feGaussianBlur stdDeviation="0.990501"/>
<feComposite in2="hardAlpha" operator="arithmetic" k2="-1" k3="1"/>
<feColorMatrix type="matrix" values="0 0 0 0 0.792009 0 0 0 0 0.102347 0 0 0 0 0.234498 0 0 0 0.2 0"/>
<feBlend mode="normal" in2="effect4_innerShadow_7_1454" result="effect5_innerShadow_7_1454"/>
</filter>
<linearGradient id="paint0_linear_7_1454" x1="40.1297" y1="19.7908" x2="14.489" y2="50.7446" gradientUnits="userSpaceOnUse">
<stop stop-color="#FF89BC"/>
<stop offset="1" stop-color="#FF4057"/>
</linearGradient>
<clipPath id="clip0_7_1454">
<rect x="0.854492" y="0.175171" width="39.2752" height="39.2752" rx="7.85504" fill="white"/>
</clipPath>
</defs>
</svg>
