<svg width="40" height="41" viewBox="0 0 40 41" fill="none" xmlns="http://www.w3.org/2000/svg">
<path d="M20.0592 0.993652C9.28379 0.993652 0.516846 9.76059 0.516846 20.5361C0.516846 31.3115 9.28379 40.0785 20.0592 40.0785C30.8347 40.0785 39.6017 31.3115 39.6017 20.5361C39.6017 9.76059 30.8347 0.993652 20.0592 0.993652ZM20.0592 37.997C10.4315 37.997 2.59827 30.1638 2.59827 20.5361C2.59827 10.9083 10.4315 3.07507 20.0592 3.07507C29.687 3.07507 37.5202 10.9083 37.5202 20.5361C37.5202 30.1638 29.687 37.997 20.0592 37.997Z" fill="white"/>
<path d="M20.097 26.6772C19.0361 26.6772 18.1731 27.5409 18.1731 28.6029C18.1731 29.6635 19.0361 30.5249 20.097 30.5249C21.1585 30.5249 22.0212 29.6638 22.0212 28.6029C22.0218 27.5409 21.1584 26.6772 20.097 26.6772Z" fill="white"/>
<path d="M24.8138 11.9824C23.4713 11.0034 22.016 10.5481 20.2315 10.5481C18.6271 10.5481 17.0789 11.0819 15.63 12.1342C14.5721 12.9015 13.877 14.052 13.5632 15.5537L13.478 15.9596L15.7188 16.2028L15.8012 15.8902C16.0648 14.8957 16.6212 14.0442 17.4128 13.4277C18.1752 12.8301 19.1267 12.5271 20.2385 12.5271C21.4693 12.5271 22.4723 12.8243 23.2214 13.4096C23.9896 14.0097 24.3956 14.877 24.3956 15.9184C24.3956 16.418 24.2544 16.8872 23.9751 17.3143C23.701 17.7342 23.1378 18.2659 22.2536 18.9411C21.0004 19.8947 20.1655 20.6629 19.7727 21.2237C19.2156 22.0168 18.9336 23.0152 18.9342 24.2111L18.9636 24.7618H21.2292L21.2492 24.4056C21.3013 23.4632 21.4485 22.7653 21.6866 22.3311C21.9589 21.8371 22.6248 21.1876 23.7241 20.3452C24.9382 19.3985 25.5437 18.5843 25.9772 17.9097C26.4219 17.2023 26.6385 16.5023 26.6385 15.7695C26.6388 14.2091 25.9736 12.829 24.814 11.9826L24.8138 11.9824Z" fill="white"/>
</svg>
